<svg xmlns="http://www.w3.org/2000/svg" viewBox="0 0 72 72"><defs><style>.cls-1{fill:#fbc9c0;}.cls-2{fill:#b52309;}.cls-3{fill:#ff3612;}</style></defs><title>ic_byq_p</title><g id="图层_2" data-name="图层 2"><g id="图层_1-2" data-name="图层 1"><rect class="cls-1" width="72" height="72" rx="36"/><rect class="cls-2" x="20" y="8" width="2" height="17" rx="1"/><rect class="cls-3" x="20" y="9" width="2" height="8" rx="1" transform="translate(34 -8) rotate(90)"/><rect class="cls-2" x="20" y="13" width="2" height="8" rx="1" transform="translate(38 -4) rotate(90)"/><rect class="cls-3" x="20" y="17" width="2" height="8" rx="1" transform="translate(42 0) rotate(90)"/><rect class="cls-2" x="35" y="13" width="2" height="8" rx="1" transform="translate(53 -19) rotate(90)"/><rect class="cls-2" x="50" y="13" width="2" height="8" rx="1" transform="translate(68 -34) rotate(90)"/><rect class="cls-2" x="35" y="8" width="2" height="17" rx="1"/><rect class="cls-3" x="35" y="9" width="2" height="8" rx="1" transform="translate(49 -23) rotate(90)"/><rect class="cls-2" x="50" y="8" width="2" height="17" rx="1"/><rect class="cls-3" x="35" y="17" width="2" height="8" rx="1" transform="translate(57 -15) rotate(90)"/><rect class="cls-3" x="50" y="9" width="2" height="8" rx="1" transform="translate(64 -38) rotate(90)"/><rect class="cls-2" x="13" y="24" width="46" height="6"/><rect class="cls-3" x="50" y="17" width="2" height="8" rx="1" transform="translate(72 -30) rotate(90)"/><rect class="cls-2" x="13" y="54" width="46" height="6"/><rect class="cls-3" x="18" y="30" width="36" height="24"/><polygon class="cls-2" points="37 41 40.03 32 33 32 30 42 34 42 31.97 53 41 41 37 41"/></g></g></svg>