<svg xmlns="http://www.w3.org/2000/svg" viewBox="0 0 40 40"><defs><style>.cls-1{fill:#adeefb;}.cls-2{fill:#00d8ff;}.cls-3{fill:#13798b;}.cls-4{fill:none;stroke:#13798b;stroke-linecap:round;stroke-linejoin:round;}</style></defs><title>ic_df_n</title><g id="图层_2" data-name="图层 2"><g id="图层_1-2" data-name="图层 1"><circle class="cls-1" cx="20" cy="20" r="20"/><rect class="cls-2" x="7" y="14" width="26" height="18"/><polygon class="cls-3" points="35 14 5 14 5 11 8 8 32 8 35 11 35 14"/><polygon class="cls-4" points="12.93 22.57 14.81 17 10.45 17 8.6 23.19 11.07 23.19 9.81 30 15.4 22.57 12.93 22.57"/><path class="cls-3" d="M17.93,27V18.41h2.95a7.34,7.34,0,0,1,1.53.12,2.87,2.87,0,0,1,1.26.62,3.37,3.37,0,0,1,1,1.47,5.59,5.59,0,0,1,.34,2,6,6,0,0,1-.23,1.73,4,4,0,0,1-.59,1.25,3.2,3.2,0,0,1-.78.78,3,3,0,0,1-1,.43A5.83,5.83,0,0,1,21,27Zm1.13-1H20.9a4.62,4.62,0,0,0,1.33-.16,2,2,0,0,0,.77-.45,2.71,2.71,0,0,0,.63-1.08,5.36,5.36,0,0,0,.23-1.66,3.93,3.93,0,0,0-.45-2.07,2.2,2.2,0,0,0-1.07-1,4.39,4.39,0,0,0-1.47-.18H19.06Z"/><path class="cls-3" d="M26.65,27V18.41h5.8v1H27.79v2.66h4v1h-4V27Z"/></g></g></svg>