<svg xmlns="http://www.w3.org/2000/svg" viewBox="0 0 52 52"><defs><style>.cls-1{fill:#fbc9c0;}.cls-2{fill:#ff3612;}.cls-3{fill:#b52309;}</style></defs><title>ic_dycx_p</title><g id="图层_2" data-name="图层 2"><g id="图层_1-2" data-name="图层 1"><circle class="cls-1" cx="26" cy="26" r="26"/><path class="cls-2" d="M38,42H14l-4-4V14l4-4H38l4,4V38Z"/><path class="cls-3" d="M38.41,43H13.59L9,38.41V13.59L13.59,9H38.41L43,13.59V38.41Zm-24-2H37.59L41,37.59V14.41L37.59,11H14.41L11,14.41V37.59Z"/><circle class="cls-3" cx="19" cy="17" r="3"/><rect class="cls-3" x="25" y="4" width="2" height="26" rx="1" transform="translate(43 -9) rotate(90)"/><circle class="cls-3" cx="34" cy="24" r="3"/><rect class="cls-3" x="25" y="11" width="2" height="26" rx="1" transform="translate(50 -2) rotate(90)"/><path class="cls-3" d="M13.69,38V31.56h2.22a5.53,5.53,0,0,1,1.15.09,2.22,2.22,0,0,1,1,.46,2.69,2.69,0,0,1,.76,1.1A4.31,4.31,0,0,1,19,34.74a4.6,4.6,0,0,1-.17,1.3,3.16,3.16,0,0,1-.44.94,2.2,2.2,0,0,1-.59.59,2.35,2.35,0,0,1-.77.32A4.52,4.52,0,0,1,16,38Zm.86-.76h1.37a3.27,3.27,0,0,0,1-.12,1.47,1.47,0,0,0,.58-.33A2.11,2.11,0,0,0,18,36a4,4,0,0,0,.17-1.24,3,3,0,0,0-.33-1.55,1.66,1.66,0,0,0-.81-.73,3.26,3.26,0,0,0-1.1-.13H14.55Z"/><path class="cls-3" d="M22,38V35.27l-2.48-3.71h1l1.27,1.94c.24.36.46.73.66,1.09.19-.34.43-.72.7-1.14l1.25-1.89h1l-2.57,3.71V38Z"/><path class="cls-3" d="M30.79,35.74l.86.22a2.86,2.86,0,0,1-1,1.6,2.63,2.63,0,0,1-1.7.55,3.1,3.1,0,0,1-1.7-.42,2.77,2.77,0,0,1-1-1.23A4.34,4.34,0,0,1,26,34.73,3.77,3.77,0,0,1,26.34,33a2.64,2.64,0,0,1,1.09-1.13A3.17,3.17,0,0,1,29,31.45a2.48,2.48,0,0,1,2.55,1.87l-.84.2a2,2,0,0,0-.65-1A1.73,1.73,0,0,0,29,32.18a2.13,2.13,0,0,0-1.24.35,2,2,0,0,0-.7,1,4,4,0,0,0-.2,1.24,3.93,3.93,0,0,0,.24,1.43,1.85,1.85,0,0,0,.74.92,2.14,2.14,0,0,0,1.1.3A1.85,1.85,0,0,0,30.12,37,2.11,2.11,0,0,0,30.79,35.74Z"/><path class="cls-3" d="M32,38l2.49-3.36-2.19-3.08h1l1.17,1.65c.24.34.42.61.52.79a7,7,0,0,1,.51-.73l1.29-1.71h.93l-2.26,3L38,38H36.89l-1.62-2.3L35,35.27a5.25,5.25,0,0,1-.31.48L33.07,38Z"/></g></g></svg>